<svg xmlns="http://www.w3.org/2000/svg" viewBox="0 0 1109 193" width="1109" height="193" font-family="Inter, 'Segoe UI', Helvetica, Arial, sans-serif">
<defs><marker id="arrow" viewBox="0 0 10 10" refX="9" refY="5" markerWidth="7" markerHeight="7" orient="auto-start-reverse"><path d="M 0 1 L 9 5 L 0 9 z" fill="#7a828f"/></marker></defs>
<title>Document &amp; Data Processing — Invoice / receipt data extraction</title>
<path d="M 177.6,100.8 L 243.6,100.8" fill="none" stroke="#7a828f" stroke-width="1.6" marker-end="url(#arrow)"/>
<path d="M 402.3,100.8 L 468.2,100.8" fill="none" stroke="#7a828f" stroke-width="1.6" marker-end="url(#arrow)"/>
<path d="M 591.2,100.8 L 624.2,100.8 L 624.2,55.0 L 657.2,55.0" fill="none" stroke="#7a828f" stroke-width="1.6" marker-end="url(#arrow)"/><rect x="590.4" y="68.9" width="67.6" height="16" rx="4" fill="#ffffff" fill-opacity="0.92"/><text x="624.2" y="77.9" font-family="Inter, 'Segoe UI', Helvetica, Arial, sans-serif" font-size="11.5" fill="#2f5f92" text-anchor="middle" dominant-baseline="middle">Confident</text>
<path d="M 591.2,100.8 L 626.0,100.8 L 626.0,146.6 L 660.8,146.6" fill="none" stroke="#7a828f" stroke-width="1.6" marker-end="url(#arrow)"/><rect x="576.2" y="114.7" width="99.6" height="16" rx="4" fill="#ffffff" fill-opacity="0.92"/><text x="626.0" y="123.7" font-family="Inter, 'Segoe UI', Helvetica, Arial, sans-serif" font-size="11.5" fill="#2f5f92" text-anchor="middle" dominant-baseline="middle">Low confidence</text>
<path d="M 851.6,55.0 L 884.6,55.0 L 884.6,100.8 L 917.6,100.8" fill="none" stroke="#7a828f" stroke-width="1.6" marker-end="url(#arrow)"/>
<path d="M 848.1,146.6 L 882.8,146.6 L 882.8,100.8 L 917.6,100.8" fill="none" stroke="#7a828f" stroke-width="1.6" marker-end="url(#arrow)"/>
<rect x="26.0" y="71.8" width="151.6" height="58.0" rx="29.0" ry="29.0" fill="#0c0f14"/><text x="101.8" y="91.8" font-family="Inter, 'Segoe UI', Helvetica, Arial, sans-serif" font-size="13.5" fill="#ffffff" text-anchor="middle" dominant-baseline="middle" font-weight="500"><tspan x="101.8" dy="0">Invoice / receipt</tspan><tspan x="101.8" dy="18">received</tspan></text>
<rect x="243.6" y="80.8" width="158.7" height="40.0" rx="9" ry="9" fill="#eef1f6" stroke="#c2cbd8" stroke-width="1.4"/><text x="322.9" y="100.8" font-family="Inter, 'Segoe UI', Helvetica, Arial, sans-serif" font-size="13.5" fill="#0c0f14" text-anchor="middle" dominant-baseline="middle" font-weight="500"><tspan x="322.9" dy="0">Extract key fields</tspan></text>
<polygon points="529.7,68.0 591.2,100.8 529.7,133.6 468.2,100.8" fill="#e5eef7" stroke="#3a6ea5" stroke-width="1.6"/><text x="529.7" y="100.8" font-family="Inter, 'Segoe UI', Helvetica, Arial, sans-serif" font-size="13.5" fill="#0c0f14" text-anchor="middle" dominant-baseline="middle" font-weight="500"><tspan x="529.7" dy="0">Validate</tspan></text>
<rect x="657.2" y="26.0" width="194.5" height="58.0" rx="9" ry="9" fill="#eef1f6" stroke="#c2cbd8" stroke-width="1.4"/><text x="754.4" y="46.0" font-family="Inter, 'Segoe UI', Helvetica, Arial, sans-serif" font-size="13.5" fill="#0c0f14" text-anchor="middle" dominant-baseline="middle" font-weight="500"><tspan x="754.4" dy="0">Draft accounting entry,</tspan><tspan x="754.4" dy="18">hold for review</tspan></text>
<rect x="660.8" y="126.6" width="187.3" height="40.0" rx="9" ry="9" fill="#eef1f6" stroke="#c2cbd8" stroke-width="1.4"/><text x="754.4" y="146.6" font-family="Inter, 'Segoe UI', Helvetica, Arial, sans-serif" font-size="13.5" fill="#0c0f14" text-anchor="middle" dominant-baseline="middle" font-weight="500"><tspan x="754.4" dy="0">Flag for manual keying</tspan></text>
<rect x="917.6" y="71.8" width="165.8" height="58.0" rx="9" ry="9" fill="#eef1f6" stroke="#c2cbd8" stroke-width="1.4"/><text x="1000.6" y="91.8" font-family="Inter, 'Segoe UI', Helvetica, Arial, sans-serif" font-size="13.5" fill="#0c0f14" text-anchor="middle" dominant-baseline="middle" font-weight="500"><tspan x="1000.6" dy="0">File document + log</tspan><tspan x="1000.6" dy="18">entry</tspan></text>
</svg>