<svg xmlns="http://www.w3.org/2000/svg" viewBox="0 0 1166 193" width="1166" height="193" font-family="Inter, 'Segoe UI', Helvetica, Arial, sans-serif">
<defs><marker id="arrow" viewBox="0 0 10 10" refX="9" refY="5" markerWidth="7" markerHeight="7" orient="auto-start-reverse"><path d="M 0 1 L 9 5 L 0 9 z" fill="#7a828f"/></marker></defs>
<title>Scheduling &amp; Booking — Reminders and no-show reduction</title>
<path d="M 199.0,100.8 L 265.0,100.8" fill="none" stroke="#7a828f" stroke-width="1.6" marker-end="url(#arrow)"/>
<path d="M 388.0,100.8 L 453.9,100.8" fill="none" stroke="#7a828f" stroke-width="1.6" marker-end="url(#arrow)"/>
<path d="M 647.8,100.8 L 680.8,100.8 L 680.8,55.0 L 713.8,55.0" fill="none" stroke="#7a828f" stroke-width="1.6" marker-end="url(#arrow)"/><rect x="618.2" y="68.9" width="125.2" height="16" rx="4" fill="#ffffff" fill-opacity="0.92"/><text x="680.8" y="77.9" font-family="Inter, 'Segoe UI', Helvetica, Arial, sans-serif" font-size="11.5" fill="#2f5f92" text-anchor="middle" dominant-baseline="middle">Reschedule request</text>
<path d="M 647.8,100.8 L 707.6,100.8 L 707.6,146.6 L 767.4,146.6" fill="none" stroke="#7a828f" stroke-width="1.6" marker-end="url(#arrow)"/><rect x="673.8" y="114.7" width="67.6" height="16" rx="4" fill="#ffffff" fill-opacity="0.92"/><text x="707.6" y="123.7" font-family="Inter, 'Segoe UI', Helvetica, Arial, sans-serif" font-size="11.5" fill="#2f5f92" text-anchor="middle" dominant-baseline="middle">No change</text>
<path d="M 915.4,55.0 L 948.4,55.0 L 948.4,100.8 L 981.4,100.8" fill="none" stroke="#7a828f" stroke-width="1.6" marker-end="url(#arrow)"/>
<rect x="26.0" y="80.8" width="173.0" height="40.0" rx="20.0" ry="20.0" fill="#0c0f14"/><text x="112.5" y="100.8" font-family="Inter, 'Segoe UI', Helvetica, Arial, sans-serif" font-size="13.5" fill="#ffffff" text-anchor="middle" dominant-baseline="middle" font-weight="500"><tspan x="112.5" dy="0">Upcoming appointment</tspan></text>
<rect x="265.0" y="80.8" width="123.0" height="40.0" rx="9" ry="9" fill="#eef1f6" stroke="#c2cbd8" stroke-width="1.4"/><text x="326.5" y="100.8" font-family="Inter, 'Segoe UI', Helvetica, Arial, sans-serif" font-size="13.5" fill="#0c0f14" text-anchor="middle" dominant-baseline="middle" font-weight="500"><tspan x="326.5" dy="0">Send reminder</tspan></text>
<polygon points="550.9,68.0 647.8,100.8 550.9,133.6 453.9,100.8" fill="#e5eef7" stroke="#3a6ea5" stroke-width="1.6"/><text x="550.9" y="100.8" font-family="Inter, 'Segoe UI', Helvetica, Arial, sans-serif" font-size="13.5" fill="#0c0f14" text-anchor="middle" dominant-baseline="middle" font-weight="500"><tspan x="550.9" dy="0">Client responds?</tspan></text>
<rect x="713.8" y="26.0" width="201.6" height="58.0" rx="9" ry="9" fill="#eef1f6" stroke="#c2cbd8" stroke-width="1.4"/><text x="814.6" y="46.0" font-family="Inter, 'Segoe UI', Helvetica, Arial, sans-serif" font-size="13.5" fill="#0c0f14" text-anchor="middle" dominant-baseline="middle" font-weight="500"><tspan x="814.6" dy="0">Flag reception + propose</tspan><tspan x="814.6" dy="18">slot</tspan></text>
<rect x="767.4" y="126.6" width="94.4" height="40.0" rx="9" ry="9" fill="#eef1f6" stroke="#c2cbd8" stroke-width="1.4"/><text x="814.6" y="146.6" font-family="Inter, 'Segoe UI', Helvetica, Arial, sans-serif" font-size="13.5" fill="#0c0f14" text-anchor="middle" dominant-baseline="middle" font-weight="500"><tspan x="814.6" dy="0">No action</tspan></text>
<rect x="981.4" y="71.8" width="158.7" height="58.0" rx="9" ry="9" fill="#eef1f6" stroke="#c2cbd8" stroke-width="1.4"/><text x="1060.8" y="91.8" font-family="Inter, 'Segoe UI', Helvetica, Arial, sans-serif" font-size="13.5" fill="#0c0f14" text-anchor="middle" dominant-baseline="middle" font-weight="500"><tspan x="1060.8" dy="0">Update calendar on</tspan><tspan x="1060.8" dy="18">confirmation</tspan></text>
</svg>